<svg width="512" height="512" viewBox="0 0 512 512" fill="none" xmlns="http://www.w3.org/2000/svg">
<g clip-path="url(#clip0_147_1199)">
<g clip-path="url(#clip1_147_1199)">
<path fill-rule="evenodd" clip-rule="evenodd" d="M202.326 75.8519L113.064 75.8519C73.4877 75.8519 53.6997 75.8519 38.5837 83.5539C25.2872 90.3287 14.4769 101.139 7.702 114.436C0 129.552 0 149.34 0 188.916L0 326.877C0 366.453 0 386.241 7.702 401.357C14.4769 414.654 25.2872 425.464 38.5837 432.239C53.6997 439.941 73.4877 439.941 113.064 439.941H132.09C142.526 446.704 153.581 452.52 165.126 457.301C189.985 467.596 216.629 472.892 243.535 472.888L243.654 472.888L243.773 472.887C253.867 472.846 263.854 470.813 273.161 466.904C282.408 463.02 290.804 457.36 297.873 450.245C301.059 447.047 303.934 443.596 306.479 439.941H398.936C438.512 439.941 458.3 439.941 473.416 432.239C486.713 425.464 497.523 414.654 504.298 401.357C512 386.241 512 366.453 512 326.877V188.916C512 149.34 512 129.552 504.298 114.436C497.523 101.139 486.713 90.3287 473.416 83.5539C458.3 75.8519 438.512 75.8519 398.936 75.8519H386.099C373.79 67.1874 360.535 59.8853 346.561 54.0987C321.705 43.8053 295.065 38.509 268.162 38.5121L268.152 38.5121C247.811 38.5147 228.304 46.5961 213.921 60.9795C209.421 65.4793 205.538 70.4805 202.326 75.8519Z" fill="#2A6974"/>
<path fill-rule="evenodd" clip-rule="evenodd" d="M249.663 410.957C251.607 410.14 253.37 408.948 254.852 407.449C257.846 404.46 259.535 400.409 259.553 396.179C259.554 394.074 259.14 391.989 258.335 390.044C257.53 388.099 256.35 386.332 254.861 384.843C253.373 383.355 251.605 382.174 249.66 381.369C247.715 380.564 245.631 380.15 243.526 380.152C228.8 380.152 214.218 377.252 200.613 371.617C187.008 365.983 174.646 357.723 164.233 347.31C153.82 336.897 145.561 324.535 139.926 310.93C134.291 297.325 131.391 282.744 131.392 268.018C131.392 263.767 129.703 259.69 126.697 256.685C123.692 253.679 119.615 251.99 115.364 251.99C111.114 251.99 107.037 253.679 104.031 256.685C101.026 259.69 99.3371 263.767 99.3371 268.018C99.334 286.954 103.061 305.705 110.306 323.2C117.552 340.695 128.172 356.591 141.562 369.981C154.952 383.371 170.848 393.992 188.343 401.237C205.838 408.482 224.59 412.209 243.526 412.206C245.634 412.198 247.719 411.773 249.663 410.957ZM254.853 343.453C251.841 346.44 247.768 348.11 243.526 348.097C222.289 348.094 201.922 339.656 186.905 324.639C171.888 309.622 163.45 289.255 163.447 268.018C163.447 265.913 163.861 263.829 164.667 261.884C165.472 259.94 166.653 258.173 168.141 256.685C169.629 255.196 171.396 254.016 173.341 253.21C175.285 252.405 177.369 251.99 179.474 251.99C181.579 251.99 183.663 252.405 185.607 253.21C187.552 254.016 189.319 255.196 190.807 256.685C192.295 258.173 193.476 259.94 194.281 261.884C195.087 263.829 195.501 265.913 195.501 268.018C195.509 280.752 200.572 292.963 209.576 301.968C218.581 310.972 230.792 316.035 243.526 316.043C246.708 316.029 249.822 316.964 252.47 318.727C255.118 320.491 257.182 323.003 258.397 325.943C259.612 328.884 259.924 332.12 259.292 335.238C258.661 338.357 257.116 341.216 254.853 343.453ZM278.413 278.438C290.924 265.927 290.924 245.642 278.413 233.131C265.901 220.62 245.617 220.62 233.106 233.131C220.595 245.642 220.595 265.927 233.106 278.438C245.617 290.949 265.901 290.949 278.413 278.438ZM343.598 254.709C341.361 256.971 338.501 258.517 335.383 259.148C332.264 259.779 329.028 259.467 326.088 258.252C323.147 257.037 320.635 254.974 318.872 252.325C317.109 249.677 316.174 246.564 316.187 243.382C316.179 230.647 311.117 218.437 302.112 209.432C293.107 200.427 280.897 195.365 268.162 195.357C266.057 195.357 263.973 194.942 262.029 194.137C260.084 193.331 258.317 192.151 256.829 190.663C255.341 189.174 254.16 187.407 253.355 185.463C252.549 183.518 252.135 181.434 252.135 179.33C252.135 177.225 252.549 175.141 253.355 173.196C254.16 171.252 255.341 169.485 256.829 167.997C258.317 166.508 260.084 165.328 262.029 164.522C263.973 163.717 266.057 163.302 268.162 163.302C289.399 163.306 309.766 171.744 324.783 186.761C339.8 201.778 348.238 222.144 348.241 243.382C348.254 247.623 346.584 251.697 343.598 254.709ZM396.323 259.409C400.553 259.392 404.604 257.702 407.593 254.709C409.092 253.227 410.284 251.463 411.101 249.519C411.917 247.576 412.342 245.49 412.35 243.382C412.353 224.446 408.626 205.695 401.381 188.2C394.136 170.705 383.515 154.808 370.125 141.418C356.736 128.029 340.839 117.408 323.344 110.163C305.849 102.918 287.098 99.1905 268.162 99.1936C263.911 99.1935 259.835 100.882 256.829 103.888C253.823 106.893 252.135 110.97 252.135 115.221C252.135 119.471 253.823 123.548 256.829 126.554C259.835 129.559 263.911 131.248 268.162 131.248C282.888 131.247 297.469 134.147 311.075 139.782C324.68 145.417 337.041 153.677 347.454 164.09C357.867 174.502 366.127 186.864 371.762 200.469C377.397 214.074 380.297 228.656 380.296 243.382C380.295 245.487 380.708 247.572 381.513 249.517C382.318 251.462 383.499 253.229 384.987 254.718C386.476 256.206 388.243 257.387 390.188 258.192C392.133 258.997 394.218 259.41 396.323 259.409Z" fill="white"/>
</g>
</g>
<defs>
<clipPath id="clip0_147_1199">
<rect width="512" height="512" fill="white"/>
</clipPath>
<clipPath id="clip1_147_1199">
<rect width="512" height="512" fill="white"/>
</clipPath>
</defs>
</svg>
