<svg xmlns="http://www.w3.org/2000/svg" xmlns:xlink="http://www.w3.org/1999/xlink" viewBox="0 0 512 512"><defs><linearGradient id="A" x1="383.425" y1="438.578" x2="510.396" y2="218.658" gradientUnits="userSpaceOnUse"><stop offset="0" stop-color="#0051b1"/><stop offset="1" stop-color="#006bea"/></linearGradient><linearGradient id="B" y1="292.424" y2="72.504" xlink:href="#A"/><linearGradient id="C" x1="255.857" y1="72.618" x2="382.828" y2="292.539" gradientUnits="userSpaceOnUse"><stop offset="0" stop-color="#1ba0f7"/><stop offset="1" stop-color="#108bf2"/></linearGradient><linearGradient id="D" x1="383.226" y1="146.155" x2="383.226" gradientUnits="userSpaceOnUse"><stop offset=".001" stop-color="#2cabff"/><stop offset="1" stop-color="#84dcff"/></linearGradient><linearGradient id="E" x1="1.319" y1="218.658" x2="128.29" y2="438.578" xlink:href="#C"/><linearGradient id="F" x1="128.886" y1="292.539" x2="255.857" y2="72.618" xlink:href="#A"/><linearGradient id="G" x1="1.319" y1="72.504" x2="128.29" y2="292.424" xlink:href="#C"/><linearGradient id="H" x1="128.489" x2="128.489" y2="0" xlink:href="#D"/><linearGradient id="I" x1="256.056" y1="512.115" x2="383.027" y2="292.194" xlink:href="#A"/><linearGradient id="J" x1="128.687" y1="292.194" x2="255.658" y2="512.115" xlink:href="#C"/><linearGradient id="K" x1="255.857" y1="365.845" x2="255.857" y2="219.691" xlink:href="#D"/></defs><path d="M510.594 364.927l-127.368 73.537V292.309l127.368-73.536v146.154z" fill="url(#A)"/><path d="M510.594 218.773l-127.368 73.536V146.155l127.368-73.537v146.155z" fill="url(#B)"/><path d="M383.226 292.309l-127.369-72.618V72.618l127.369 73.537v146.154z" fill="url(#C)"/><path d="M510.594 72.618l-127.368 73.537-127.369-73.537L383.226 0l127.368 72.618" fill="url(#D)"/><path d="M128.488 438.464L1.12 364.927V218.773l127.368 73.536v146.155z" fill="url(#E)"/><path d="M255.857 219.691l-127.368 72.618V146.155l127.368-73.537v147.073z" fill="url(#F)"/><path d="M128.488 292.309L1.12 218.773V72.618l127.368 73.537v146.154z" fill="url(#G)"/><path d="M255.857 72.618l-127.368 73.537L1.12 72.618 128.489 0l127.368 72.618" fill="url(#H)"/><path d="M383.226 438.464L255.857 512V365.845l127.369-73.536v146.155z" fill="url(#I)"/><path d="M255.857 512l-127.368-73.536V292.309l127.368 73.536V512z" fill="url(#J)"/><path d="M383.226 292.309l-127.369 73.536-127.368-73.536 127.368-72.618 127.369 72.618" fill="url(#K)"/><path d="M380.69 439.928l5.067-2.927V293.723l124.832-74.95-124.832 69.219V147.568l124.832-74.95-127.365 70.625-127.367-70.625 124.837 74.953v140.442l-124.837-68.322 124.824 74.026-124.826 69.217-124.826-69.216 124.823-74.027L131.02 288.01V147.568l124.832-74.95-127.366 70.625L1.12 72.618l124.837 74.953v140.423L1.12 218.773l124.837 74.952v143.274l5.059 2.927.004-146.097 122.305 73.433v143.273l2.532 1.465 2.532-1.463V367.259l122.305-73.433-.004 146.102z" fill="#c1dffb"/></svg>