<svg width="20" height="20" viewBox="0 0 20 20" fill="none" xmlns="http://www.w3.org/2000/svg">
<path opacity="0.25" d="M17.8573 5H2.143C1.74851 5 1.42871 5.3198 1.42871 5.71428V14.2857C1.42871 14.6802 1.74851 15 2.143 15H17.8573C18.2518 15 18.5716 14.6802 18.5716 14.2857V5.71429C18.5716 5.3198 18.2518 5 17.8573 5Z" fill="#FBB300"/>
<path fill-rule="evenodd" clip-rule="evenodd" d="M2.14286 5H17.8571C18.2516 5 18.5714 5.31979 18.5714 5.71428V7.54501C17.9553 7.70359 17.5 8.26291 17.5 8.92857V11.0714C17.5 11.7371 17.9553 12.2964 18.5714 12.455V14.2857C18.5714 14.6802 18.2516 15 17.8571 15H2.14286C1.74837 15 1.42857 14.6802 1.42857 14.2857V5.71428C1.42857 5.31979 1.74837 5 2.14286 5ZM0 5.71428C0 4.53081 0.95939 3.57143 2.14286 3.57143H17.8571C19.0406 3.57143 20 4.53082 20 5.71428V14.2857C20 15.4692 19.0406 16.4286 17.8571 16.4286H2.14286C0.959389 16.4286 0 15.4692 0 14.2857V5.71428Z" fill="#FBB300"/>
<path fill-rule="evenodd" clip-rule="evenodd" d="M12.8357 9.4L7.73567 6.77143C7.38567 6.59286 6.94996 6.72857 6.77139 7.07857C6.59281 7.42857 6.72853 7.86429 7.07853 8.04286L10.9571 10.0357L8.09996 11.5143V10.0357C8.09996 9.64286 7.77853 9.32143 7.38567 9.32143C6.99282 9.32143 6.67139 9.64286 6.67139 10.0357V12.6929C6.67139 13.0857 6.99282 13.4071 7.38567 13.4071C7.49996 13.4071 7.61424 13.3786 7.71424 13.3286L12.8142 10.6714C13.05 10.55 13.2 10.3 13.2 10.0357C13.2 9.77143 13.0642 9.52857 12.8357 9.4Z" fill="#FBB300"/>
</svg>
