<svg width="20" height="20" viewBox="0 0 20 20" fill="none" xmlns="http://www.w3.org/2000/svg">
<path d="M17.8573 5H2.143C1.74851 5 1.42871 5.3198 1.42871 5.71428V14.2857C1.42871 14.6802 1.74851 15 2.143 15H17.8573C18.2518 15 18.5716 14.6802 18.5716 14.2857V5.71429C18.5716 5.3198 18.2518 5 17.8573 5Z" fill="#D4DADB"/>
<path d="M17.5 8.92857C17.5 8.13959 18.1396 7.5 18.9286 7.5H19.6429V12.5H18.9286C18.1396 12.5 17.5 11.8604 17.5 11.0714V8.92857Z" fill="#466066"/>
<rect x="0.714286" y="4.28571" width="18.5714" height="11.4286" rx="1.42857" stroke="#466066" stroke-width="1.42857"/>
<path fill-rule="evenodd" clip-rule="evenodd" d="M12.8357 9.4L7.73567 6.77143C7.38567 6.59286 6.94996 6.72857 6.77139 7.07857C6.59281 7.42857 6.72853 7.86429 7.07853 8.04286L10.9571 10.0357L8.09996 11.5143V10.0357C8.09996 9.64286 7.77853 9.32143 7.38567 9.32143C6.99282 9.32143 6.67139 9.64286 6.67139 10.0357V12.6929C6.67139 13.0857 6.99282 13.4071 7.38567 13.4071C7.49996 13.4071 7.61424 13.3786 7.71424 13.3286L12.8142 10.6714C13.05 10.55 13.2 10.3 13.2 10.0357C13.2 9.77143 13.0642 9.52857 12.8357 9.4Z" fill="#466066"/>
</svg>
