<svg width="286" height="296" viewBox="0 0 286 296" fill="none" xmlns="http://www.w3.org/2000/svg">
<path d="M295.909 355.137C263.274 355.137 236.818 328.589 236.818 295.839C236.818 263.09 263.274 236.541 295.909 236.541C328.544 236.541 355 263.09 355 295.839C355 328.589 328.544 355.137 295.909 355.137Z" fill="#D4DADB"/>
<path fill-rule="evenodd" clip-rule="evenodd" d="M325.454 147.728C325.454 131.41 312.226 118.182 295.909 118.182C197.996 118.182 118.635 197.761 118.635 295.722C118.635 312.039 131.863 325.267 148.181 325.267C164.499 325.267 177.727 312.039 177.727 295.722C177.727 230.296 230.731 177.273 295.909 177.273C312.226 177.273 325.454 164.045 325.454 147.728Z" fill="#D4DADB"/>
<path fill-rule="evenodd" clip-rule="evenodd" d="M325.249 29.5456C325.249 13.228 312.021 0 295.703 0C132.702 0 0.454498 132.553 0.454498 295.722C0.454498 312.039 13.6825 325.267 30.0001 325.267C46.3176 325.267 59.5456 312.039 59.5456 295.722C59.5456 165.089 165.435 59.0911 295.703 59.0911C312.021 59.0911 325.249 45.8631 325.249 29.5456Z" fill="#D4DADB"/>
</svg>
