<svg width="298" height="177" viewBox="0 0 298 177" fill="none" xmlns="http://www.w3.org/2000/svg">
<path d="M438 -42H0V177H438V-42Z" fill="url(#paint0_linear_229_875)"/>
<path style="mix-blend-mode:overlay" opacity="0.2" d="M312.936 177L80.2416 45.4394L0 177H312.936Z" fill="url(#paint1_linear_229_875)"/>
<path style="mix-blend-mode:overlay" opacity="0.5" d="M438 -42H173.068L0 177L438 -42Z" fill="url(#paint2_linear_229_875)"/>
<path style="mix-blend-mode:overlay" opacity="0.5" d="M242.856 -42H53.5674L0 177L242.856 -42Z" fill="url(#paint3_linear_229_875)"/>
<path style="mix-blend-mode:overlay" opacity="0.2" d="M271.078 82.0124L176.967 17.2906L0 177L271.078 82.0124Z" fill="url(#paint4_linear_229_875)"/>
<path style="mix-blend-mode:overlay" opacity="0.2" d="M0 -12.9898V177L438 125.228V61.9666L0 -12.9898Z" fill="url(#paint5_linear_229_875)"/>
<path style="mix-blend-mode:overlay" opacity="0.2" d="M438 177L174.222 -12.9898L0 49.4544V67.5L438 177Z" fill="url(#paint6_linear_229_875)"/>
<path style="mix-blend-mode:overlay" opacity="0.8" d="M438 -42L88.2716 132.864L438 115.49V-42Z" fill="url(#paint7_linear_229_875)"/>
<path style="mix-blend-mode:overlay" opacity="0.8" d="M0 67.5L312.936 177H438V-42L0 67.5Z" fill="url(#paint8_linear_229_875)"/>
<path style="mix-blend-mode:overlay" opacity="0.1" d="M0 -42V177L107.12 0.646599L0 -42Z" fill="url(#paint9_linear_229_875)"/>
<path style="mix-blend-mode:overlay" opacity="0.2" d="M200.078 177L294.92 87.94L64.5466 177H200.078Z" fill="url(#paint10_linear_229_875)"/>
<path style="mix-blend-mode:overlay" opacity="0.8" d="M0 115.505L312.936 177H438L186.486 8.8226L0 115.505Z" fill="url(#paint11_linear_229_875)"/>
<path style="mix-blend-mode:overlay" opacity="0.3" d="M192.443 177L213.554 67.5L0 -42L192.443 177Z" fill="url(#paint12_linear_229_875)"/>
<path style="mix-blend-mode:overlay" opacity="0.2" d="M199.042 -42H35.7116L124.582 45.4394L199.042 -42Z" fill="url(#paint13_linear_229_875)"/>
<path style="mix-blend-mode:overlay" opacity="0.2" d="M122.085 -42H35.7116L0 63.9084L122.085 -42Z" fill="url(#paint14_linear_229_875)"/>
<path style="mix-blend-mode:overlay" opacity="0.2" d="M27.74 8.82255L0 115.505L127.327 -21.5016L27.74 8.82255Z" fill="url(#paint15_linear_229_875)"/>
<defs>
<linearGradient id="paint0_linear_229_875" x1="44.4278" y1="169.35" x2="422.758" y2="-51.3732" gradientUnits="userSpaceOnUse">
<stop stop-color="#1E454D"/>
<stop offset="0.32" stop-color="#337684"/>
<stop offset="0.68" stop-color="#B2D9E1"/>
<stop offset="0.91" stop-color="white"/>
</linearGradient>
<linearGradient id="paint1_linear_229_875" x1="53.2316" y1="118.293" x2="427.955" y2="99.7952" gradientUnits="userSpaceOnUse">
<stop stop-color="#231F20" stop-opacity="0"/>
<stop offset="1"/>
</linearGradient>
<linearGradient id="paint2_linear_229_875" x1="367.394" y1="-112.576" x2="114.42" y2="176.051" gradientUnits="userSpaceOnUse">
<stop/>
<stop offset="1" stop-color="#231F20" stop-opacity="0"/>
</linearGradient>
<linearGradient id="paint3_linear_229_875" x1="-109.033" y1="228.407" x2="100.229" y2="8.42839" gradientUnits="userSpaceOnUse">
<stop/>
<stop offset="1" stop-color="#231F20" stop-opacity="0"/>
</linearGradient>
<linearGradient id="paint4_linear_229_875" x1="240.856" y1="35.7012" x2="90.6222" y2="160.166" gradientUnits="userSpaceOnUse">
<stop stop-color="#231F20" stop-opacity="0"/>
<stop offset="1"/>
</linearGradient>
<linearGradient id="paint5_linear_229_875" x1="-36.938" y1="325.146" x2="210.313" y2="65.2516" gradientUnits="userSpaceOnUse">
<stop/>
<stop offset="1" stop-color="#231F20" stop-opacity="0"/>
</linearGradient>
<linearGradient id="paint6_linear_229_875" x1="381.863" y1="60.1416" x2="166.017" y2="122.454" gradientUnits="userSpaceOnUse">
<stop/>
<stop offset="1" stop-color="#231F20" stop-opacity="0"/>
</linearGradient>
<linearGradient id="paint7_linear_229_875" x1="276.889" y1="62.8864" x2="369.789" y2="180.825" gradientUnits="userSpaceOnUse">
<stop stop-color="#231F20" stop-opacity="0"/>
<stop offset="1"/>
</linearGradient>
<linearGradient id="paint8_linear_229_875" x1="222.387" y1="86.9472" x2="212.255" y2="192.637" gradientUnits="userSpaceOnUse">
<stop stop-color="#231F20" stop-opacity="0"/>
<stop offset="1"/>
</linearGradient>
<linearGradient id="paint9_linear_229_875" x1="117.472" y1="95.6342" x2="-63.6414" y2="52.2576" gradientUnits="userSpaceOnUse">
<stop stop-color="#231F20" stop-opacity="0"/>
<stop offset="1"/>
</linearGradient>
<linearGradient id="paint10_linear_229_875" x1="232.075" y1="160.375" x2="145.721" y2="114.66" gradientUnits="userSpaceOnUse">
<stop stop-color="#231F20" stop-opacity="0"/>
<stop offset="1"/>
</linearGradient>
<linearGradient id="paint11_linear_229_875" x1="219.803" y1="138.383" x2="209.174" y2="242.7" gradientUnits="userSpaceOnUse">
<stop stop-color="#231F20" stop-opacity="0"/>
<stop offset="1"/>
</linearGradient>
<linearGradient id="paint12_linear_229_875" x1="20.3962" y1="-157.369" x2="134.568" y2="67.4708" gradientUnits="userSpaceOnUse">
<stop/>
<stop offset="1" stop-color="#231F20" stop-opacity="0"/>
</linearGradient>
<linearGradient id="paint13_linear_229_875" x1="151.095" y1="1.8146" x2="61.2032" y2="-115.015" gradientUnits="userSpaceOnUse">
<stop stop-color="#231F20" stop-opacity="0"/>
<stop offset="0.84"/>
</linearGradient>
<linearGradient id="paint14_linear_229_875" x1="58.2832" y1="7.3772" x2="13.0378" y2="-51.4316" gradientUnits="userSpaceOnUse">
<stop stop-color="#231F20" stop-opacity="0"/>
<stop offset="0.84"/>
</linearGradient>
<linearGradient id="paint15_linear_229_875" x1="66.941" y1="51.2647" x2="17.7244" y2="-12.7125" gradientUnits="userSpaceOnUse">
<stop stop-color="#231F20" stop-opacity="0"/>
<stop offset="0.84"/>
</linearGradient>
</defs>
</svg>
