<svg width="20" height="20" viewBox="0 0 20 20" fill="none" xmlns="http://www.w3.org/2000/svg">
<g clip-path="url(#clip0_381_6355)">
<path d="M1.34615 13.6058C0.949519 13.6058 0.625 13.9303 0.625 14.3269C0.625 14.7236 0.949519 15.0481 1.34615 15.0481C1.74279 15.0481 2.06731 15.3726 2.06731 15.7692C2.06731 16.1659 2.39183 16.4904 2.78846 16.4904C3.1851 16.4904 3.50962 16.1659 3.50962 15.7692C3.50962 14.5721 2.54327 13.6058 1.34615 13.6058ZM18.7404 4.14423C18.3365 3.74038 17.7885 3.50961 17.2115 3.50961H2.78846C1.59135 3.50961 0.625 4.47596 0.625 5.67307C0.625 6.06971 0.949519 6.39423 1.34615 6.39423C1.74279 6.39423 2.06731 6.06971 2.06731 5.67307C2.06731 5.27644 2.39183 4.95192 2.78846 4.95192H17.2115C17.6082 4.95192 17.9327 5.27644 17.9327 5.67307V14.3269C17.9327 14.7236 17.6082 15.0481 17.2115 15.0481H11.4423C11.0457 15.0481 10.7212 15.3726 10.7212 15.7692C10.7212 16.1659 11.0457 16.4904 11.4423 16.4904H17.2115C18.4087 16.4904 19.375 15.524 19.375 14.3269V5.67307C19.375 5.09615 19.1442 4.54807 18.7404 4.14423ZM1.34615 10.7212C0.949519 10.7212 0.625 11.0457 0.625 11.4423C0.625 11.8389 0.949519 12.1635 1.34615 12.1635C3.33654 12.1635 4.95192 13.7788 4.95192 15.7692C4.95192 16.1659 5.27644 16.4904 5.67308 16.4904C6.06971 16.4904 6.39423 16.1659 6.39423 15.7692C6.39423 12.9784 4.13702 10.7212 1.34615 10.7212ZM1.34615 7.83654C0.949519 7.83654 0.625 8.16106 0.625 8.55769C0.625 8.95432 0.949519 9.27884 1.34615 9.27884C4.93029 9.27884 7.83654 12.1851 7.83654 15.7692C7.83654 16.1659 8.16106 16.4904 8.55769 16.4904C8.95433 16.4904 9.27885 16.1659 9.27885 15.7692C9.27885 11.3846 5.73077 7.83654 1.34615 7.83654Z" fill="#FBB300"/>
<path opacity="0.25" d="M2.06735 5.67307C2.06735 6.06971 1.34619 6.39423 1.34619 6.39423C7.61894 7.45936 9.99811 9.20924 10.7212 15.7692C10.7212 15.3726 11.0457 15.0481 11.4423 15.0481H17.2116C17.6082 15.0481 17.9327 14.7236 17.9327 14.3269V5.67307C17.9327 5.27644 17.6082 4.95192 17.2116 4.95192H2.7885C2.39186 4.95192 2.06735 5.27644 2.06735 5.67307Z" fill="#FBB300"/>
</g>
<defs>
<clipPath id="clip0_381_6355">
<rect width="18.75" height="12.9808" fill="white" transform="translate(0.625 3.50961)"/>
</clipPath>
</defs>
</svg>
