<svg width="20" height="20" viewBox="0 0 20 20" fill="none" xmlns="http://www.w3.org/2000/svg">
<path d="M13.3261 9.47477L8.32088 6.89503C7.97738 6.71978 7.54976 6.85297 7.37451 7.19647C7.19926 7.53997 7.33245 7.96759 7.67595 8.14284L11.4825 10.0987L8.6784 11.5498V10.0987C8.6784 9.71312 8.36294 9.39766 7.97738 9.39766C7.59182 9.39766 7.27637 9.71312 7.27637 10.0987V12.7065C7.27637 13.092 7.59182 13.4075 7.97738 13.4075C8.08955 13.4075 8.20171 13.3794 8.29985 13.3304L13.3051 10.7226C13.5364 10.6034 13.6837 10.3581 13.6837 10.0987C13.6837 9.8393 13.5505 9.60096 13.3261 9.47477Z" fill="#FBB300"/>
<path opacity="0.25" fill-rule="evenodd" clip-rule="evenodd" d="M12.8573 4.28572H7.143C5.02851 4.28572 4.33558 4.30593 3.82057 4.48614C2.79469 4.84511 1.9881 5.6517 1.62913 6.67758C1.44892 7.19259 1.42871 7.88552 1.42871 10C1.42871 12.1145 1.44892 12.8074 1.62913 13.3224C1.9881 14.3483 2.79469 15.1549 3.82057 15.5139C4.33558 15.6941 5.02851 15.7143 7.143 15.7143H12.8573C14.9718 15.7143 15.6647 15.6941 16.1797 15.5139C17.2056 15.1549 18.0122 14.3483 18.3712 13.3224C18.5514 12.8074 18.5716 12.1145 18.5716 10C18.5716 7.88552 18.5514 7.19259 18.3712 6.67758C18.0122 5.6517 17.2056 4.84511 16.1797 4.48614C15.6647 4.30593 14.9718 4.28572 12.8573 4.28572Z" fill="#FBB300"/>
<path fill-rule="evenodd" clip-rule="evenodd" d="M12.8571 4.28572H7.14286C5.02837 4.28572 4.33544 4.30593 3.82043 4.48614C2.79455 4.84511 1.98796 5.6517 1.62899 6.67758C1.44878 7.19259 1.42857 7.88552 1.42857 10C1.42857 12.1145 1.44878 12.8074 1.62899 13.3224C1.98796 14.3483 2.79455 15.1549 3.82043 15.5139C4.33544 15.6941 5.02837 15.7143 7.14286 15.7143H12.8571C14.9716 15.7143 15.6646 15.6941 16.1796 15.5139C17.2054 15.1549 18.012 14.3483 18.371 13.3224C18.5512 12.8074 18.5714 12.1145 18.5714 10C18.5714 7.88552 18.5512 7.19259 18.371 6.67758C18.012 5.6517 17.2054 4.84511 16.1796 4.48614C15.6646 4.30593 14.9716 4.28572 12.8571 4.28572ZM0.280583 6.20575C0 7.00761 0 8.00508 0 10C0 11.9949 0 12.9924 0.280583 13.7943C0.783144 15.2305 1.91237 16.3597 3.3486 16.8623C4.15047 17.1429 5.14793 17.1429 7.14286 17.1429H12.8571C14.8521 17.1429 15.8495 17.1429 16.6514 16.8623C18.0876 16.3597 19.2169 15.2305 19.7194 13.7943C20 12.9924 20 11.9949 20 10C20 8.00508 20 7.00761 19.7194 6.20575C19.2169 4.76952 18.0876 3.64029 16.6514 3.13773C15.8495 2.85715 14.8521 2.85715 12.8571 2.85715H7.14286C5.14793 2.85715 4.15047 2.85715 3.3486 3.13773C1.91237 3.64029 0.783144 4.76952 0.280583 6.20575Z" fill="#FBB300"/>
</svg>
