<?xml version="1.0" encoding="UTF-8"?><svg id="Layer_1" xmlns="http://www.w3.org/2000/svg" width="1920" height="1080" viewBox="0 0 1920 1080"><defs><style>.cls-1{fill:#c8e4ea;}.cls-2{fill:#356977;}.cls-3{fill:#7bb4c0;}.cls-4{fill:#26545e;}</style></defs><rect class="cls-2" width="1920" height="1080"/><polygon class="cls-1" points="1920 333.64 1920 221.12 458.48 645.17 458.48 757.69 1920 333.64"/><polygon class="cls-3" points="0 624.66 0 288.92 458.48 421.95 458.48 757.69 0 624.66"/><polygon class="cls-3" points="916.97 512.14 916.97 288.91 458.48 421.95 458.48 645.17 916.97 512.14"/><polygon class="cls-2" points="916.97 400.5 916.97 288.91 458.48 421.94 458.48 533.53 916.97 400.5"/><polygon class="cls-4" points="0 288.92 0 0 1920 0 1920 846 0 288.92"/><polygon class="cls-1" points="0 512.14 0 288.92 458.48 421.95 458.48 645.17 0 512.14"/><polygon class="cls-2" points="1920 0 1527.01 0 458.48 0 458.49 421.94 1920 0"/></svg>