<?xml version="1.0" encoding="UTF-8"?><svg id="Layer_2" xmlns="http://www.w3.org/2000/svg" width="1920" height="1080" viewBox="0 0 1920 1080"><defs><style>.cls-1{fill:#c8e4ea;}.cls-2{fill:#356977;}.cls-3{fill:#7bb4c0;}.cls-4{fill:#26545e;}</style></defs><g id="Layer_1-2"><rect class="cls-2" width="1920" height="1080"/><path class="cls-1" d="m526.52,941.61h4.51v12.77l9.35-12.77h4.26v19.6h-4.48v-12.74l-9.35,12.74h-4.28v-19.6Z"/><path class="cls-1" d="m563.33,952.83c.64.83.97,1.8.97,2.9,0,1.19-.39,2.23-1.18,3.11s-1.84,1.55-3.18,2.02c-1.33.47-2.8.7-4.38.7-1.34,0-2.68-.17-4.02-.5s-2.6-.85-3.79-1.54l1.4-3.25c.86.52,1.81.92,2.84,1.19,1.04.27,2.05.41,3.04.41,1.34,0,2.46-.24,3.35-.73s1.33-1.17,1.33-2.04c0-.73-.3-1.28-.91-1.65-.61-.37-1.43-.56-2.48-.56h-4.79v-3.42h4.45c.91,0,1.63-.19,2.14-.56.51-.37.77-.89.77-1.54,0-.77-.37-1.36-1.11-1.79-.74-.43-1.68-.64-2.84-.64-.86,0-1.75.12-2.66.35-.92.23-1.78.58-2.6,1.05l-1.37-3.53c2.07-1.06,4.31-1.6,6.72-1.6,1.53,0,2.94.22,4.23.67,1.29.45,2.31,1.1,3.08,1.96.77.86,1.15,1.86,1.15,3,0,.93-.25,1.76-.76,2.49s-1.19,1.29-2.07,1.68c1.14.39,2.03,1,2.67,1.83Z"/><path class="cls-1" d="m567.88,941.61h15.82v3.61h-11.31v4.03h5.43c2.37,0,4.18.49,5.42,1.48,1.24.99,1.86,2.42,1.86,4.28,0,1.96-.69,3.48-2.07,4.56-1.38,1.08-3.33,1.62-5.85,1.62h-9.3v-19.6Zm9.04,16.24c1.16,0,2.04-.23,2.66-.69.62-.46.92-1.12.92-2,0-1.72-1.19-2.58-3.58-2.58h-4.54v5.26h4.54Z"/><path class="cls-1" d="m592.39,960.23c-1.63-.88-2.91-2.09-3.84-3.63-.92-1.54-1.39-3.27-1.39-5.19s.46-3.65,1.39-5.19c.92-1.54,2.2-2.75,3.84-3.63,1.63-.88,3.47-1.32,5.5-1.32s3.86.44,5.49,1.32c1.62.88,2.9,2.09,3.84,3.63s1.4,3.27,1.4,5.19-.47,3.65-1.4,5.19-2.21,2.75-3.84,3.63-3.45,1.32-5.49,1.32-3.87-.44-5.5-1.32Zm8.64-3.35c.93-.53,1.67-1.27,2.2-2.23.53-.95.8-2.03.8-3.25s-.27-2.3-.8-3.25c-.53-.95-1.26-1.69-2.2-2.23-.93-.53-1.98-.8-3.14-.8s-2.2.27-3.14.8c-.93.53-1.67,1.27-2.2,2.23-.53.95-.8,2.03-.8,3.25s.27,2.3.8,3.25c.53.95,1.26,1.69,2.2,2.23.93.53,1.98.8,3.14.8s2.2-.27,3.14-.8Z"/><path class="cls-1" d="m625.12,942.48c1.28.58,2.26,1.4,2.95,2.46.69,1.06,1.04,2.32,1.04,3.78s-.35,2.69-1.04,3.77c-.69,1.07-1.68,1.9-2.95,2.46-1.28.57-2.79.85-4.52.85h-3.95v5.4h-4.54v-19.6h8.48c1.74,0,3.24.29,4.52.87Zm-1.67,8.75c.71-.59,1.06-1.42,1.06-2.51s-.35-1.95-1.06-2.53-1.75-.88-3.11-.88h-3.7v6.8h3.7c1.36,0,2.4-.29,3.11-.88Z"/><path class="cls-1" d="m632.11,941.61h4.51v12.77l9.35-12.77h4.26v19.6h-4.48v-12.74l-9.35,12.74h-4.28v-19.6Z"/><path class="cls-1" d="m676.84,952.83c.64.83.97,1.8.97,2.9,0,1.19-.39,2.23-1.18,3.11s-1.84,1.55-3.18,2.02c-1.33.47-2.8.7-4.38.7-1.34,0-2.68-.17-4.02-.5s-2.6-.85-3.79-1.54l1.4-3.25c.86.52,1.81.92,2.84,1.19,1.04.27,2.05.41,3.04.41,1.34,0,2.46-.24,3.35-.73s1.33-1.17,1.33-2.04c0-.73-.3-1.28-.91-1.65-.61-.37-1.43-.56-2.48-.56h-4.79v-3.42h4.45c.91,0,1.63-.19,2.14-.56.51-.37.77-.89.77-1.54,0-.77-.37-1.36-1.11-1.79-.74-.43-1.68-.64-2.84-.64-.86,0-1.75.12-2.66.35-.92.23-1.78.58-2.6,1.05l-1.37-3.53c2.07-1.06,4.31-1.6,6.72-1.6,1.53,0,2.94.22,4.23.67,1.29.45,2.31,1.1,3.08,1.96.77.86,1.15,1.86,1.15,3,0,.93-.25,1.76-.76,2.49s-1.19,1.29-2.07,1.68c1.14.39,2.03,1,2.67,1.83Z"/><path class="cls-1" d="m694.66,957.01h-9.1l-1.74,4.2h-4.65l8.74-19.6h4.48l8.76,19.6h-4.76l-1.74-4.2Zm-1.43-3.44l-3.11-7.5-3.11,7.5h6.22Z"/><path class="cls-1" d="m729.66,941.61v19.6h-4.54v-8.04h-8.9v8.04h-4.54v-19.6h4.54v7.73h8.9v-7.73h4.54Z"/><path class="cls-1" d="m747.83,957.01h-9.1l-1.74,4.2h-4.65l8.74-19.6h4.48l8.76,19.6h-4.76l-1.74-4.2Zm-1.43-3.44l-3.11-7.5-3.11,7.5h6.22Z"/><path class="cls-1" d="m769.94,942.48c1.28.58,2.26,1.4,2.95,2.46.69,1.06,1.04,2.32,1.04,3.78s-.35,2.69-1.04,3.77c-.69,1.07-1.68,1.9-2.95,2.46-1.28.57-2.79.85-4.52.85h-3.95v5.4h-4.54v-19.6h8.48c1.74,0,3.24.29,4.52.87Zm-1.67,8.75c.71-.59,1.06-1.42,1.06-2.51s-.35-1.95-1.06-2.53-1.75-.88-3.11-.88h-3.7v6.8h3.7c1.36,0,2.4-.29,3.11-.88Z"/><path class="cls-1" d="m781.05,960.23c-1.63-.88-2.91-2.09-3.84-3.63-.92-1.54-1.39-3.27-1.39-5.19s.46-3.65,1.39-5.19c.92-1.54,2.2-2.75,3.84-3.63,1.63-.88,3.47-1.32,5.5-1.32s3.86.44,5.49,1.32c1.62.88,2.9,2.09,3.84,3.63s1.4,3.27,1.4,5.19-.47,3.65-1.4,5.19-2.21,2.75-3.84,3.63-3.45,1.32-5.49,1.32-3.87-.44-5.5-1.32Zm8.64-3.35c.93-.53,1.67-1.27,2.2-2.23.53-.95.8-2.03.8-3.25s-.27-2.3-.8-3.25c-.53-.95-1.26-1.69-2.2-2.23-.93-.53-1.98-.8-3.14-.8s-2.2.27-3.14.8c-.93.53-1.67,1.27-2.2,2.23-.53.95-.8,2.03-.8,3.25s.27,2.3.8,3.25c.53.95,1.26,1.69,2.2,2.23.93.53,1.98.8,3.14.8s2.2-.27,3.14-.8Z"/><path class="cls-1" d="m820.43,957.52v7.76h-4.2v-4.06h-13.83v4.06h-4.2l.03-7.76h.78c1.18-.04,2.01-.9,2.49-2.58.48-1.68.78-4.08.9-7.2l.22-6.13h15.06v15.9h2.74Zm-14.62-3.49c-.3,1.58-.76,2.74-1.37,3.49h8.76v-12.21h-6.72l-.08,2.86c-.09,2.33-.29,4.29-.59,5.87Z"/><path class="cls-1" d="m841.46,941.61v19.6h-4.54v-8.04h-8.9v8.04h-4.54v-19.6h4.54v7.73h8.9v-7.73h4.54Z"/><path class="cls-1" d="m846.36,941.61h4.51v12.77l9.35-12.77h4.26v19.6h-4.48v-12.74l-9.35,12.74h-4.28v-19.6Z"/><path class="cls-1" d="m895.14,941.61v19.6h-4.51v-15.9h-8.85v15.9h-4.51v-19.6h17.86Z"/><path class="cls-1" d="m913.02,942.48c1.28.58,2.26,1.4,2.95,2.46.69,1.06,1.04,2.32,1.04,3.78s-.35,2.69-1.04,3.77c-.69,1.07-1.68,1.9-2.95,2.46-1.28.57-2.79.85-4.52.85h-3.95v5.4h-4.54v-19.6h8.48c1.74,0,3.24.29,4.52.87Zm-1.67,8.75c.71-.59,1.06-1.42,1.06-2.51s-.35-1.95-1.06-2.53-1.75-.88-3.11-.88h-3.7v6.8h3.7c1.36,0,2.4-.29,3.11-.88Z"/><path class="cls-1" d="m935.18,957.57v3.64h-15.18v-19.6h14.81v3.64h-10.3v4.26h9.1v3.53h-9.1v4.54h10.67Z"/><path class="cls-1" d="m959.06,957.52v7.76h-4.2v-4.06h-13.83v4.06h-4.2l.03-7.76h.78c1.18-.04,2.01-.9,2.49-2.58.48-1.68.78-4.08.9-7.2l.22-6.13h15.06v15.9h2.74Zm-14.62-3.49c-.3,1.58-.76,2.74-1.37,3.49h8.76v-12.21h-6.72l-.08,2.86c-.09,2.33-.29,4.29-.59,5.87Z"/><path class="cls-1" d="m965.96,960.25c-1.61-.87-2.88-2.07-3.81-3.61s-1.39-3.28-1.39-5.22.46-3.68,1.39-5.22,2.19-2.74,3.81-3.61c1.61-.87,3.43-1.3,5.45-1.3,1.7,0,3.23.3,4.61.9,1.37.6,2.52,1.46,3.46,2.58l-2.91,2.69c-1.33-1.53-2.97-2.3-4.93-2.3-1.21,0-2.3.27-3.25.8-.95.53-1.69,1.27-2.23,2.23-.53.95-.8,2.03-.8,3.25s.27,2.3.8,3.25c.53.95,1.27,1.69,2.23,2.23.95.53,2.03.8,3.25.8,1.96,0,3.6-.77,4.93-2.32l2.91,2.69c-.93,1.14-2.09,2.01-3.47,2.6-1.38.6-2.92.9-4.62.9-2,0-3.8-.43-5.42-1.3Z"/><path class="cls-1" d="m997.23,945.31h-6.27v15.9h-4.48v-15.9h-6.24v-3.7h17v3.7Z"/><path class="cls-1" d="m1012.37,957.01h-9.1l-1.74,4.2h-4.65l8.74-19.6h4.48l8.76,19.6h-4.76l-1.74-4.2Zm-1.43-3.44l-3.11-7.5-3.11,7.5h6.22Z"/><path class="cls-1" d="m1037.8,952.73c.63.8.95,1.79.95,2.97,0,1.74-.66,3.09-1.97,4.06-1.32.97-3.2,1.46-5.64,1.46h-9.66v-19.6h9.13c2.28,0,4.05.44,5.32,1.32,1.27.88,1.9,2.13,1.9,3.75,0,.97-.24,1.83-.73,2.56-.49.74-1.17,1.32-2.04,1.75,1.19.35,2.11.93,2.74,1.74Zm-11.82-3h4.23c.99,0,1.74-.2,2.24-.6.5-.4.76-.99.76-1.78s-.26-1.35-.77-1.76c-.51-.41-1.26-.62-2.23-.62h-4.23v4.76Zm8.18,5.6c0-1.62-1.06-2.44-3.19-2.44h-4.98v4.96h4.98c2.13,0,3.19-.84,3.19-2.52Z"/><path class="cls-1" d="m1042.33,941.61h4.51v12.77l9.35-12.77h4.26v19.6h-4.48v-12.74l-9.35,12.74h-4.28v-19.6Z"/><path class="cls-1" d="m1080.3,945.31h-6.27v15.9h-4.48v-15.9h-6.24v-3.7h17v3.7Z"/><path class="cls-1" d="m1098.33,957.57v3.64h-15.18v-19.6h14.81v3.64h-10.3v4.26h9.1v3.53h-9.1v4.54h10.67Z"/><path class="cls-1" d="m1119.47,941.61v19.6h-4.48v-15.9h-6.72l-.14,4.09c-.09,2.78-.32,5.04-.67,6.76-.35,1.73-.95,3.05-1.78,3.98-.83.92-1.99,1.39-3.49,1.39-.62,0-1.36-.1-2.24-.31l.28-3.84c.24.07.51.11.81.11,1.08,0,1.84-.64,2.27-1.92.43-1.28.7-3.28.81-6.01l.28-7.95h15.06Z"/><path class="cls-1" d="m1124.37,941.61h4.51v12.77l9.35-12.77h4.26v19.6h-4.48v-12.74l-9.35,12.74h-4.28v-19.6Z"/><path class="cls-1" d="m538.92,994.41v1.79h-13.75v-1.43l8.15-7.98c1.03-1.01,1.72-1.88,2.09-2.62.36-.74.55-1.48.55-2.23,0-1.16-.4-2.06-1.19-2.7-.79-.64-1.93-.97-3.4-.97-2.3,0-4.08.73-5.35,2.18l-1.43-1.23c.77-.9,1.74-1.59,2.93-2.07,1.19-.49,2.52-.73,4.02-.73,2,0,3.58.47,4.75,1.41,1.17.94,1.75,2.24,1.75,3.88,0,1.01-.22,1.98-.67,2.91-.45.93-1.3,2.01-2.55,3.22l-6.66,6.55h10.78Z"/><path class="cls-1" d="m563.17,990.97h-10.92l-2.35,5.24h-2.16l8.96-19.6h2.04l8.96,19.6h-2.18l-2.35-5.24Zm-.76-1.68l-4.7-10.53-4.7,10.53h9.41Z"/><path class="cls-1" d="m587.95,976.6v19.6h-2.04v-17.81h-12.4v17.81h-2.04v-19.6h16.49Z"/><path class="cls-1" d="m607.78,978.4c1.42,1.19,2.13,2.84,2.13,4.93s-.71,3.73-2.13,4.91c-1.42,1.19-3.38,1.78-5.88,1.78h-5.26v6.19h-2.07v-19.6h7.34c2.5,0,4.46.6,5.88,1.79Zm-1.48,8.53c1.03-.85,1.54-2.05,1.54-3.6s-.51-2.8-1.54-3.65c-1.03-.85-2.51-1.27-4.45-1.27h-5.21v9.8h5.21c1.94,0,3.43-.42,4.45-1.27Z"/><path class="cls-1" d="m614.16,976.6h2.04v16.24l12.54-16.24h1.88v19.6h-2.04v-16.21l-12.54,16.21h-1.88v-19.6Z"/><path class="cls-1" d="m652.3,976.6v19.6h-2.04v-17.81h-9.46l-.22,6.55c-.09,2.71-.31,4.89-.66,6.54-.35,1.65-.87,2.88-1.58,3.7-.71.81-1.65,1.22-2.83,1.22-.5,0-1.03-.07-1.57-.2l.17-1.85c.32.08.62.11.92.11.82,0,1.49-.33,2-.98.51-.65.9-1.67,1.16-3.04.26-1.37.44-3.19.53-5.45l.28-8.4h13.3Z"/><path class="cls-1" d="m677.78,994.41v1.79h-13.75v-1.43l8.15-7.98c1.03-1.01,1.72-1.88,2.09-2.62.36-.74.55-1.48.55-2.23,0-1.16-.4-2.06-1.19-2.7-.79-.64-1.93-.97-3.4-.97-2.3,0-4.08.73-5.35,2.18l-1.43-1.23c.77-.9,1.74-1.59,2.93-2.07,1.19-.49,2.52-.73,4.02-.73,2,0,3.58.47,4.75,1.41,1.17.94,1.75,2.24,1.75,3.88,0,1.01-.22,1.98-.67,2.91-.45.93-1.3,2.01-2.55,3.22l-6.66,6.55h10.78Z"/><path class="cls-1" d="m683.95,995.17c-1.19-.8-2.11-1.96-2.77-3.46-.66-1.5-.99-3.27-.99-5.31s.33-3.8.99-5.31c.66-1.5,1.59-2.66,2.77-3.46,1.19-.8,2.53-1.2,4.05-1.2s2.86.4,4.05,1.2c1.19.8,2.11,1.96,2.79,3.46.67,1.5,1.01,3.27,1.01,5.31s-.34,3.8-1.01,5.31c-.67,1.5-1.6,2.66-2.79,3.46-1.19.8-2.53,1.2-4.05,1.2s-2.86-.4-4.05-1.2Zm7.06-1.6c.87-.63,1.54-1.56,2.03-2.77.48-1.21.73-2.68.73-4.4s-.24-3.18-.73-4.4c-.49-1.21-1.16-2.14-2.03-2.77-.87-.63-1.87-.95-3.01-.95s-2.14.32-3.01.95c-.87.63-1.54,1.56-2.03,2.77-.49,1.21-.73,2.68-.73,4.4s.24,3.18.73,4.4c.49,1.21,1.16,2.14,2.03,2.77.87.63,1.87.95,3.01.95s2.14-.32,3.01-.95Z"/><path class="cls-1" d="m712.05,994.41v1.79h-13.75v-1.43l8.15-7.98c1.03-1.01,1.72-1.88,2.09-2.62.36-.74.55-1.48.55-2.23,0-1.16-.4-2.06-1.19-2.7-.79-.64-1.93-.97-3.4-.97-2.3,0-4.08.73-5.35,2.18l-1.43-1.23c.77-.9,1.74-1.59,2.93-2.07,1.19-.49,2.52-.73,4.02-.73,2,0,3.58.47,4.75,1.41,1.17.94,1.75,2.24,1.75,3.88,0,1.01-.22,1.98-.67,2.91-.45.93-1.3,2.01-2.55,3.22l-6.66,6.55h10.78Z"/><path class="cls-1" d="m725.92,986.67c1.07,1,1.61,2.3,1.61,3.91,0,1.12-.27,2.11-.81,2.98s-1.34,1.55-2.41,2.06-2.36.76-3.89.76c-1.42,0-2.76-.23-4.02-.69-1.26-.46-2.27-1.07-3.04-1.83l.98-1.6c.65.67,1.52,1.22,2.6,1.64s2.24.63,3.47.63c1.6,0,2.85-.35,3.72-1.05.88-.7,1.32-1.67,1.32-2.9s-.44-2.17-1.32-2.86c-.88-.69-2.2-1.04-3.98-1.04h-1.4v-1.48l5.43-6.8h-10.02v-1.79h12.6v1.43l-5.54,6.97c2.05.11,3.62.67,4.69,1.67Z"/><path class="cls-1" d="m560.8,803.76c1.17,1.51,1.76,3.39,1.76,5.62,0,3.35-1.31,5.99-3.92,7.91-2.61,1.93-6.31,2.89-11.1,2.89h-19.4v-37.82h18.37c4.54,0,8.06.86,10.56,2.57,2.5,1.71,3.75,4.13,3.75,7.27,0,1.84-.44,3.46-1.32,4.86-.88,1.4-2.15,2.52-3.81,3.35,2.23.72,3.93,1.84,5.11,3.35Zm-22.12-6.27h6.81c3.03,0,4.54-1.24,4.54-3.73s-1.51-3.73-4.54-3.73h-6.81v7.46Zm13.07,11.08c0-2.56-1.55-3.84-4.65-3.84h-8.43v7.78h8.43c3.1,0,4.65-1.31,4.65-3.94Z"/><path class="cls-1" d="m618.14,820.19l-.05-20.04-9.73,16.32h-4.75l-9.72-15.88v19.61h-9.83v-37.82h8.81l13.29,21.83,12.97-21.83h8.81l.11,37.82h-9.89Z"/><path class="cls-1" d="m643.89,818.41c-3.19-1.69-5.69-4.03-7.51-7.02-1.82-2.99-2.73-6.36-2.73-10.1s.91-7.11,2.73-10.1c1.82-2.99,4.32-5.33,7.51-7.02,3.19-1.69,6.78-2.54,10.78-2.54s7.59.85,10.78,2.54c3.19,1.69,5.69,4.03,7.51,7.02,1.82,2.99,2.73,6.36,2.73,10.1s-.91,7.11-2.73,10.1c-1.82,2.99-4.32,5.33-7.51,7.02-3.19,1.69-6.78,2.54-10.78,2.54s-7.59-.85-10.78-2.54Zm15.96-7.67c1.55-.9,2.77-2.17,3.67-3.81.9-1.64,1.35-3.52,1.35-5.65s-.45-4.01-1.35-5.65c-.9-1.64-2.13-2.91-3.67-3.81-1.55-.9-3.28-1.35-5.19-1.35s-3.64.45-5.19,1.35c-1.55.9-2.77,2.17-3.67,3.81-.9,1.64-1.35,3.52-1.35,5.65s.45,4.01,1.35,5.65c.9,1.64,2.12,2.91,3.67,3.81,1.55.9,3.28,1.35,5.19,1.35s3.64-.45,5.19-1.35Z"/><path class="cls-1" d="m715.5,820.19l-.05-20.04-9.73,16.32h-4.75l-9.72-15.88v19.61h-9.83v-37.82h8.81l13.29,21.83,12.97-21.83h8.81l.11,37.82h-9.89Z"/><path class="cls-1" d="m763.8,811.92v8.27h-30.36v-37.82h29.66v8.27h-19.07v6.38h16.8v8h-16.8v6.92h19.77Z"/><path class="cls-1" d="m805.88,782.37v37.82h-10.7v-14.75h-14.59v14.75h-10.7v-37.82h10.7v14.21h14.59v-14.21h10.7Z"/><path class="cls-1" d="m844.46,790.85h-11.56v29.34h-10.54v-29.34h-11.62v-8.48h33.71v8.48Z"/><path class="cls-1" d="m873.58,812.84h-15.99l-2.97,7.35h-10.91l16.69-37.82h10.54l16.75,37.82h-11.13l-2.97-7.35Zm-3.13-7.89l-4.86-12.1-4.86,12.1h9.72Z"/><path class="cls-1" d="m943.7,782.37v37.82h-10.7v-14.75h-14.59v14.75h-10.7v-37.82h10.7v14.21h14.59v-14.21h10.7Z"/><path class="cls-1" d="m983.47,782.37v37.82h-10.54v-9.51h-5.83l-6.21,9.51h-11.24l7.67-11.08c-2.52-1.12-4.45-2.73-5.78-4.83-1.33-2.11-2-4.62-2-7.54s.68-5.51,2.05-7.67c1.37-2.16,3.33-3.82,5.89-4.97,2.56-1.15,5.55-1.73,8.97-1.73h17.02Zm-23.12,14.21c0,1.91.53,3.36,1.59,4.35,1.06.99,2.6,1.49,4.62,1.49h6.38v-11.62h-6.27c-4.21,0-6.32,1.93-6.32,5.78Z"/><path class="cls-1" d="m1025.66,820.19l-.05-20.04-9.73,16.32h-4.75l-9.72-15.88v19.61h-9.83v-37.82h8.81l13.29,21.83,12.97-21.83h8.81l.11,37.82h-9.89Z"/><path class="cls-1" d="m1069.69,812.84h-15.99l-2.97,7.35h-10.91l16.69-37.82h10.54l16.75,37.82h-11.13l-2.97-7.35Zm-3.13-7.89l-4.86-12.1-4.86,12.1h9.72Z"/><path class="cls-1" d="m560.8,865.68c1.17,1.51,1.76,3.39,1.76,5.62,0,3.35-1.31,5.99-3.92,7.91-2.61,1.93-6.31,2.89-11.1,2.89h-19.4v-37.82h18.37c4.54,0,8.06.86,10.56,2.57,2.5,1.71,3.75,4.13,3.75,7.27,0,1.84-.44,3.46-1.32,4.86-.88,1.4-2.15,2.52-3.81,3.35,2.23.72,3.93,1.84,5.11,3.35Zm-22.12-6.27h6.81c3.03,0,4.54-1.24,4.54-3.73s-1.51-3.73-4.54-3.73h-6.81v7.46Zm13.07,11.08c0-2.56-1.55-3.84-4.65-3.84h-8.43v7.78h8.43c3.1,0,4.65-1.31,4.65-3.94Z"/><path class="cls-1" d="m568.33,844.28h10.54v22.2l15.61-22.2h10.05v37.82h-10.54v-22.15l-15.56,22.15h-10.1v-37.82Z"/><path class="cls-1" d="m653.15,873.62v16.1h-9.78v-7.62h-24.2v7.62h-9.83v-16.1h1.35c2.23-.04,3.81-1.57,4.73-4.59.92-3.03,1.49-7.38,1.7-13.07l.43-11.67h30.47v29.34h5.13Zm-27.66-6.48c-.5,2.81-1.28,4.97-2.32,6.48h14.32v-20.85h-10.86l-.16,4.11c-.14,4.03-.47,7.46-.97,10.27Z"/><path class="cls-1" d="m688.65,873.84v8.27h-30.36v-37.82h29.66v8.27h-19.07v6.38h16.8v8h-16.8v6.92h19.77Z"/><path class="cls-1" d="m702.51,880.32c-3.19-1.69-5.69-4.03-7.51-7.02-1.82-2.99-2.73-6.36-2.73-10.1s.91-7.11,2.73-10.1c1.82-2.99,4.32-5.33,7.51-7.02,3.19-1.69,6.78-2.54,10.78-2.54s7.59.85,10.78,2.54c3.19,1.69,5.69,4.03,7.51,7.02,1.82,2.99,2.73,6.36,2.73,10.1s-.91,7.11-2.73,10.1c-1.82,2.99-4.32,5.33-7.51,7.02-3.19,1.69-6.78,2.54-10.78,2.54s-7.59-.85-10.78-2.54Zm15.96-7.67c1.55-.9,2.77-2.17,3.67-3.81.9-1.64,1.35-3.52,1.35-5.65s-.45-4.01-1.35-5.65c-.9-1.64-2.13-2.91-3.67-3.81-1.55-.9-3.28-1.35-5.19-1.35s-3.64.45-5.19,1.35c-1.55.9-2.77,2.17-3.67,3.81-.9,1.64-1.35,3.52-1.35,5.65s.45,4.01,1.35,5.65c.9,1.64,2.12,2.91,3.67,3.81,1.55.9,3.28,1.35,5.19,1.35s3.64-.45,5.19-1.35Z"/><path class="cls-1" d="m740.03,844.28h10.54v22.2l15.61-22.2h10.05v37.82h-10.54v-22.15l-15.56,22.15h-10.1v-37.82Z"/><path class="cls-1" d="m812.64,866c1.19,1.59,1.78,3.4,1.78,5.46,0,2.34-.79,4.38-2.38,6.1-1.59,1.73-3.73,3.05-6.43,3.97s-5.67,1.38-8.91,1.38c-2.56,0-5.16-.31-7.81-.92-2.65-.61-5.18-1.53-7.59-2.76l3.19-7.46c1.69.86,3.5,1.52,5.43,1.97,1.93.45,3.79.68,5.59.68,2.38,0,4.32-.39,5.83-1.16,1.51-.77,2.27-1.86,2.27-3.27,0-1.12-.47-1.94-1.4-2.49-.94-.54-2.2-.81-3.78-.81h-9.67v-7.83h8.81c1.44,0,2.56-.29,3.35-.86.79-.58,1.19-1.35,1.19-2.32,0-1.22-.61-2.17-1.84-2.84-1.22-.67-2.81-1-4.75-1-1.58,0-3.26.23-5.02.68-1.77.45-3.44,1.09-5.02,1.92l-3.13-8.1c4.03-1.94,8.46-2.92,13.29-2.92,3.1,0,5.97.44,8.62,1.32,2.65.88,4.75,2.15,6.32,3.81,1.57,1.66,2.35,3.62,2.35,5.89,0,1.77-.46,3.34-1.38,4.73-.92,1.39-2.19,2.48-3.81,3.27,2.09.79,3.73,1.98,4.92,3.57Z"/><path class="cls-1" d="m855.48,844.28v37.82h-10.54v-29.34h-10.86l-.22,6.16c-.18,5.4-.62,9.8-1.32,13.18-.7,3.39-1.9,6.01-3.59,7.86-1.69,1.86-4.09,2.78-7.19,2.78-1.44,0-3.06-.22-4.86-.65l.59-8.75c.47.11.95.16,1.46.16,1.4,0,2.48-.56,3.24-1.67.76-1.12,1.3-2.67,1.62-4.67s.54-4.6.65-7.81l.54-15.07h30.47Z"/><path class="cls-1" d="m900.62,859.44c2.5,2.07,3.75,5.14,3.75,9.21,0,4.36-1.4,7.69-4.21,10-2.81,2.31-6.72,3.46-11.72,3.46h-17.88v-29.34h-10.21v-8.48h20.75v12.05h8.81c4.65,0,8.22,1.04,10.72,3.11Zm-8.59,13.53c1.06-.97,1.59-2.34,1.59-4.11,0-3.28-1.96-4.92-5.89-4.92h-6.65v10.48h6.65c1.8,0,3.23-.49,4.3-1.46Z"/><path class="cls-1" d="m941.22,844.28v37.82h-10.54v-12.86c-2.92.97-5.6,1.46-8.05,1.46-5.29,0-9.34-1.27-12.13-3.81-2.79-2.54-4.19-6.2-4.19-10.99v-11.62h10.54v10.43c0,4.86,2.38,7.29,7.13,7.29,2.59,0,4.83-.43,6.7-1.3v-16.42h10.54Z"/><path class="cls-1" d="m981.98,865.68c1.17,1.51,1.76,3.39,1.76,5.62,0,3.35-1.31,5.99-3.92,7.91-2.61,1.93-6.31,2.89-11.1,2.89h-19.4v-37.82h18.37c4.54,0,8.06.86,10.56,2.57,2.5,1.71,3.75,4.13,3.75,7.27,0,1.84-.44,3.46-1.32,4.86-.88,1.4-2.15,2.52-3.81,3.35,2.23.72,3.93,1.84,5.11,3.35Zm-22.12-6.27h6.81c3.03,0,4.54-1.24,4.54-3.73s-1.51-3.73-4.54-3.73h-6.81v7.46Zm13.07,11.08c0-2.56-1.55-3.84-4.65-3.84h-8.43v7.78h8.43c3.1,0,4.65-1.31,4.65-3.94Z"/><path class="cls-1" d="m1015.61,874.75h-15.99l-2.97,7.35h-10.91l16.69-37.82h10.54l16.75,37.82h-11.13l-2.97-7.35Zm-3.13-7.89l-4.86-12.1-4.86,12.1h9.72Z"/><path class="cls-1" d="m1070.02,844.28v37.82h-10.7v-14.75h-14.59v14.75h-10.7v-37.82h10.7v14.21h14.59v-14.21h10.7Z"/><path class="cls-1" d="m1108.48,873.84v8.27h-30.36v-37.82h29.66v8.27h-19.07v6.38h16.8v8h-16.8v6.92h19.77Z"/><polygon class="cls-1" points="1920 333.64 1920 221.12 458.48 645.17 458.48 757.69 1920 333.64"/><polygon class="cls-3" points="0 624.66 0 288.92 458.48 421.95 458.48 757.69 0 624.66"/><polygon class="cls-3" points="916.97 512.14 916.97 288.91 458.48 421.95 458.48 645.17 916.97 512.14"/><polygon class="cls-2" points="916.97 400.5 916.97 288.91 458.48 421.94 458.48 533.53 916.97 400.5"/><polygon class="cls-4" points="0 288.92 0 0 1920 0 1920 846 0 288.92"/><polygon class="cls-1" points="0 512.14 0 288.92 458.48 421.95 458.48 645.17 0 512.14"/><polygon class="cls-2" points="1920 0 1527.01 0 458.48 0 458.49 421.94 1920 0"/></g></svg>