<svg width="80" height="80" viewBox="0 0 80 80" fill="none" xmlns="http://www.w3.org/2000/svg">
<rect width="80" height="80" fill="#C78E00"/>
<path d="M39.9922 56.1406C42.2005 56.1406 44.2786 55.7188 46.2266 54.875C48.1745 54.0417 49.8932 52.8802 51.3828 51.3906C52.8724 49.901 54.0391 48.1823 54.8828 46.2344C55.7266 44.2865 56.1484 42.2083 56.1484 40C56.1484 37.7917 55.7266 35.7135 54.8828 33.7656C54.0391 31.8177 52.8724 30.1042 51.3828 28.625C49.8932 27.1354 48.1745 25.9688 46.2266 25.125C44.2786 24.2812 42.1953 23.8594 39.9766 23.8594C37.7682 23.8594 35.6901 24.2812 33.7422 25.125C31.8047 25.9688 30.0911 27.1354 28.6016 28.625C27.1224 30.1042 25.9609 31.8177 25.1172 33.7656C24.2734 35.7135 23.8516 37.7917 23.8516 40C23.8516 42.2083 24.2734 44.2865 25.1172 46.2344C25.9609 48.1823 27.1224 49.901 28.6016 51.3906C30.0911 52.8802 31.8099 54.0417 33.7578 54.875C35.7057 55.7188 37.7839 56.1406 39.9922 56.1406ZM39.9922 52.9531C38.2005 52.9531 36.5182 52.6198 34.9453 51.9531C33.3828 51.2865 32.0078 50.3594 30.8203 49.1719C29.6432 47.9844 28.7214 46.6094 28.0547 45.0469C27.388 43.4844 27.0547 41.8021 27.0547 40C27.0547 38.2083 27.388 36.5312 28.0547 34.9688C28.7214 33.3958 29.6432 32.0156 30.8203 30.8281C31.9974 29.6406 33.3672 28.7135 34.9297 28.0469C36.5026 27.3802 38.1849 27.0469 39.9766 27.0469C41.7786 27.0469 43.4609 27.3802 45.0234 28.0469C46.5964 28.7135 47.9766 29.6406 49.1641 30.8281C50.3516 32.0156 51.2786 33.3958 51.9453 34.9688C52.612 36.5312 52.9453 38.2083 52.9453 40C52.9453 41.8021 52.612 43.4844 51.9453 45.0469C51.2786 46.6094 50.3516 47.9844 49.1641 49.1719C47.9766 50.3594 46.6016 51.2865 45.0391 51.9531C43.4766 52.6198 41.7943 52.9531 39.9922 52.9531ZM33.6797 46.1875H41.6016C42.3932 46.1875 43.0078 45.9688 43.4453 45.5312C43.8932 45.0938 44.1172 44.4896 44.1172 43.7188V36.3281C44.1172 35.5469 43.9036 34.9427 43.4766 34.5156C43.0599 34.0781 42.4557 33.8594 41.6641 33.8594H33.6797C32.9193 33.8594 32.3099 34.0781 31.8516 34.5156C31.3932 34.9427 31.1641 35.5469 31.1641 36.3281V43.75C31.1641 44.5312 31.3828 45.1354 31.8203 45.5625C32.2682 45.9792 32.888 46.1875 33.6797 46.1875ZM44.9922 42.25L47.7891 44.625C47.9453 44.75 48.1016 44.8542 48.2578 44.9375C48.4141 45.0104 48.5703 45.0469 48.7266 45.0469C49.0286 45.0469 49.2734 44.9531 49.4609 44.7656C49.6484 44.5677 49.7422 44.2969 49.7422 43.9531V36.0938C49.7422 35.7604 49.6484 35.5 49.4609 35.3125C49.2734 35.1146 49.0286 35.0156 48.7266 35.0156C48.5703 35.0156 48.4141 35.0573 48.2578 35.1406C48.1016 35.2135 47.9453 35.3073 47.7891 35.4219L44.9922 37.8125V42.25Z" fill="white"/>
</svg>
